<svg width="23" height="23" viewBox="0 0 23 23" fill="none" xmlns="http://www.w3.org/2000/svg">
<g clip-path="url(#clip0_1_1025)">
<path d="M19.0852 12.4852C18.7134 12.0156 18.8198 11.8067 19.0852 11.3869C19.09 11.3821 22.1595 7.14053 22.4758 5.70207L22.4777 5.70111C22.6349 5.17691 22.4777 4.79166 21.7178 4.79166H19.2031C18.5629 4.79166 18.2677 5.12228 18.1096 5.4922C18.1096 5.4922 16.8293 8.55695 15.018 10.5436C14.4335 11.1176 14.1632 11.3016 13.8441 11.3016C13.6869 11.3016 13.4425 11.1176 13.4425 10.5934V5.70111C13.4425 5.07245 13.2633 4.79166 12.7334 4.79166H8.77929C8.37775 4.79166 8.13913 5.08491 8.13913 5.35803C8.13913 5.95412 9.04475 6.09116 9.13867 7.76824V11.407C9.13867 12.2044 8.99396 12.351 8.67292 12.351C7.81808 12.351 5.74329 9.27378 4.51375 5.75191C4.26554 5.06861 4.02308 4.79261 3.37813 4.79261H0.8625C0.144708 4.79261 0 5.12324 0 5.49316C0 6.14674 0.854833 9.39645 3.97517 13.6898C6.05475 16.6204 8.98342 18.2083 11.6476 18.2083C13.249 18.2083 13.4445 17.8557 13.4445 17.249C13.4445 14.4488 13.2998 14.1843 14.1019 14.1843C14.4737 14.1843 15.1139 14.3683 16.6089 15.7818C18.3176 17.4579 18.5984 18.2083 19.5548 18.2083H22.0695C22.7863 18.2083 23.1495 17.8557 22.9406 17.1599C22.4624 15.6965 19.2309 12.6864 19.0852 12.4852Z" fill="#EA6628"/>
</g>
<defs>
<clipPath id="clip0_1_1025">
<rect width="23" height="23" fill="white"/>
</clipPath>
</defs>
</svg>
