<svg width="78" height="78" viewBox="0 0 78 78" fill="none" xmlns="http://www.w3.org/2000/svg">
<g clip-path="url(#clip0_1_994)">
<path d="M34.225 44.5933H4.82442C3.4801 44.5933 3.4801 42.561 4.82442 42.561H31.3763C32.8872 42.561 32.889 40.2765 31.3763 40.2765H7.07684V6.60196H69.1087V40.2765H61.7551C60.2448 40.2765 60.2418 42.561 61.7551 42.561H71.7747C73.1184 42.561 73.1184 44.5933 71.7747 44.5933H59.1106C57.6002 44.5933 57.5978 46.8784 59.1106 46.8784H71.7747C73.5945 46.8784 75.0751 45.3972 75.0751 43.5775C75.0751 41.7571 73.5945 40.2765 71.7747 40.2765H71.3939V6.60196H71.7747C73.5945 6.60196 75.0751 5.12077 75.0751 3.30098C75.0751 1.48059 73.5945 0 71.7747 0H4.82442C3.00403 0 1.52344 1.48059 1.52344 3.30098C1.52344 5.11006 2.98677 6.58411 4.79169 6.60196V40.2765C2.98677 40.2943 1.52344 41.7678 1.52344 43.5775C1.52344 45.3972 3.00403 46.8784 4.82442 46.8784H34.225C35.7353 46.8784 35.7377 44.5933 34.225 44.5933ZM4.82442 2.28516H71.7747C73.1184 2.28516 73.1184 4.3168 71.7747 4.3168H4.82442C3.47951 4.3168 3.48129 2.28516 4.82442 2.28516Z" fill="#4C858B"/>
<path d="M21.1879 10.7349C21.1879 9.73154 20.3714 8.91566 19.3681 8.91566H12.1954C11.1921 8.91566 10.3762 9.73154 10.3762 10.7349V15.1659C10.3762 16.1692 11.1921 16.9851 12.1954 16.9851H19.3681C20.3714 16.9851 21.1879 16.1692 21.1879 15.1659V10.7349ZM18.9027 14.7H12.6608V11.2002H18.9027V14.7Z" fill="#4C858B"/>
<path d="M21.1879 21.3234C21.1879 20.3201 20.3714 19.5042 19.3681 19.5042H12.1954C11.1921 19.5042 10.3762 20.3201 10.3762 21.3234V25.7545C10.3762 26.7578 11.1921 27.5737 12.1954 27.5737H19.3681C20.3714 27.5737 21.1879 26.7578 21.1879 25.7545V21.3234ZM18.9027 25.2885H12.6608V21.7888H18.9027V25.2885Z" fill="#4C858B"/>
<path d="M19.3681 30.0926H12.1954C11.1921 30.0926 10.3762 30.9084 10.3762 31.9118V36.3428C10.3762 37.3461 11.1921 38.162 12.1954 38.162H19.3681C20.3714 38.162 21.1879 37.3461 21.1879 36.3428V31.9118C21.1879 30.9084 20.3714 30.0926 19.3681 30.0926ZM18.9027 35.8775H12.6608V32.3771H18.9027V35.8775Z" fill="#4C858B"/>
<path d="M69.5225 51.9159C68.2781 51.3809 66.9731 50.9989 65.6437 50.74L54.0673 48.4894V45.6288C57.3183 43.4115 59.078 40.2706 59.4612 36.7434C61.1483 36.6095 62.4807 35.1938 62.4807 33.4728V31.1246C65.2319 29.9284 64.8599 25.9139 61.9493 25.2367V24.3298C61.9493 16.1824 55.3444 9.57686 47.1964 9.57686H45.9598C37.8118 9.57686 31.2068 16.1824 31.2068 24.3298V25.2361C28.2974 25.9133 27.9243 29.9284 30.676 31.1246V33.4722C30.676 35.1938 32.0078 36.6095 33.6955 36.7428C34.077 40.2539 35.8152 43.3954 39.0894 45.6288V48.4888L27.5131 50.74C26.1837 50.9989 24.8786 51.3803 23.6343 51.9159C18.9372 53.9375 16.6455 57.1646 16.6455 61.7231V64.0701C16.6455 65.5804 18.9301 65.5828 18.9301 64.0701V61.7236C18.9301 58.3001 20.4856 55.9328 23.8979 54.2975C24.0354 54.9057 26.1289 60.5882 26.1289 68.5279V75.7155H21.3009C19.9917 75.7155 18.9301 74.6538 18.9301 73.3446V68.616C18.9301 67.1057 16.6455 67.1033 16.6455 68.616V73.3446C16.6455 75.916 18.7295 78 21.3009 78H71.8558C74.4272 78 76.5113 75.916 76.5113 73.3446V61.7236C76.5113 57.1646 74.219 53.9375 69.5225 51.9159ZM67.1284 53.4483C66.9695 54.1457 64.7427 60.1407 64.7427 68.5279V75.7155H47.7207V69.9591C47.7207 68.2477 48.2414 66.6028 49.2262 65.2032C50.7015 63.1055 56.778 54.338 58.5799 51.6945C66.7815 53.3459 65.7924 53.0038 67.1284 53.4483ZM45.7991 63.888C44.9225 62.6419 43.7841 61.0066 42.5957 59.2927C42.9486 59.2147 43.2932 59.0791 43.6163 58.8857L46.5781 57.1093L49.5399 58.8857C49.863 59.0791 50.2076 59.2147 50.5604 59.2927C49.3732 61.006 48.2348 62.6407 47.3577 63.888C47.0655 64.3034 46.8054 64.7354 46.5781 65.1811C46.3514 64.7354 46.0913 64.3034 45.7991 63.888ZM44.2459 55.8435C42.4368 56.8123 42.5654 57.1022 41.7435 57.0046C41.2324 56.9439 40.7735 56.6594 40.4808 56.2357C39.115 54.2576 37.8505 52.4223 37.0227 51.2185L39.3108 50.7739C40.0499 53.0186 42.4856 54.8039 44.2459 55.8435ZM56.1341 51.2191C55.3039 52.4253 54.0364 54.2659 52.6671 56.2488C52.1083 57.0569 51.1067 57.1605 50.7152 56.9254L48.9103 55.8435C50.6711 54.8039 53.1063 53.0186 53.8454 50.7739L56.1341 51.2191ZM39.9238 13.4229V14.8559C39.9238 16.3663 42.2083 16.3687 42.2083 14.8559V12.4387C43.2337 12.1143 44.3161 11.9197 45.4361 11.8733V17.5225C45.4361 19.0329 47.7207 19.0353 47.7207 17.5225V11.8733C48.8406 11.9197 49.9231 12.1149 50.9478 12.4387V14.8559C50.9478 16.3663 53.233 16.3687 53.233 14.8559V13.4235C60.3753 17.3916 59.616 24.9755 59.6648 25.1564H33.492C33.5313 25.0094 32.8183 17.3714 39.9238 13.4229ZM31.9126 27.4409H61.2441C62.3397 27.4409 62.3379 29.0959 61.2441 29.0959H31.9126C30.817 29.0959 30.8188 27.4409 31.9126 27.4409ZM35.9081 35.5866C35.8944 34.9653 35.3874 34.469 34.7655 34.469C34.5751 34.4214 32.9612 34.7654 32.9612 33.4728V31.3811H60.1962V33.4728C60.1962 34.7636 58.5383 34.4321 58.3913 34.469C57.7694 34.469 57.2618 34.9653 57.2487 35.5866C57.1874 38.443 55.974 41.0959 53.9186 42.8652C49.5553 46.622 43.602 46.6226 39.2382 42.8652C37.1828 41.0959 35.9688 38.4424 35.9081 35.5866ZM51.7822 46.8904V49.4308C51.7822 51.4738 48.3152 53.6369 46.5781 54.5111C44.8428 53.6375 41.3835 51.4797 41.374 49.4391C41.374 49.4368 41.374 49.4338 41.374 49.4308V46.8904C44.6994 48.3245 48.4532 48.3263 51.7822 46.8904ZM26.0283 53.4483C27.3625 53.0049 26.3711 53.3465 34.5763 51.6945L35.2291 52.6431C35.895 53.6113 36.8168 54.9497 37.8385 56.4303C39.7024 59.132 42.2732 62.8472 43.9305 65.2026C44.9154 66.6028 45.4361 68.2471 45.4361 69.9591V75.7149H28.4141V68.5273C28.4141 59.9247 26.2414 54.3862 26.0283 53.4483ZM74.2261 73.3446C74.2261 74.6514 73.1633 75.7149 71.8558 75.7149H67.0279V68.5279C67.0279 60.806 69.1744 54.6712 69.2594 54.2975C72.6711 55.9328 74.2267 58.3001 74.2267 61.7236V73.3446H74.2261Z" fill="#4C858B"/>
<path d="M52.8062 66.0843C51.7291 66.0843 50.8525 66.9609 50.8525 68.038V70.3273C50.8525 71.4051 51.7291 72.281 52.8062 72.281H59.5254C60.6025 72.281 61.4791 71.4051 61.4791 70.3273V68.038C61.4791 66.9609 60.6025 66.0843 59.5254 66.0843H52.8062ZM59.194 69.9959H53.1377V68.3695H59.194V69.9959Z" fill="#4C858B"/>
</g>
<defs>
<clipPath id="clip0_1_994">
<rect width="78" height="78" fill="white"/>
</clipPath>
</defs>
</svg>
