<svg width="7" height="7" viewBox="0 0 7 7" fill="none" xmlns="http://www.w3.org/2000/svg">
<path d="M5.44438 3.22686L2.3293 0.111828C2.25725 0.0397233 2.16107 0 2.05852 0C1.95597 0 1.85979 0.0397233 1.78774 0.111828L1.55833 0.341176C1.40906 0.490622 1.40906 0.733514 1.55833 0.882733L4.17415 3.49855L1.55543 6.11727C1.48338 6.18937 1.4436 6.28549 1.4436 6.38799C1.4436 6.4906 1.48338 6.58672 1.55543 6.65888L1.78484 6.88817C1.85694 6.96028 1.95306 7 2.05561 7C2.15817 7 2.25434 6.96028 2.32639 6.88817L5.44438 3.77029C5.5166 3.69796 5.55627 3.60139 5.55604 3.49872C5.55627 3.39566 5.5166 3.29914 5.44438 3.22686Z" fill="#4C858B"/>
</svg>
