<svg width="18" height="18" viewBox="0 0 18 18" fill="none" xmlns="http://www.w3.org/2000/svg">
<g clip-path="url(#clip0_3501_251)">
<path d="M17.7328 6.50602C17.4951 6.20782 17.1385 6.03675 16.7544 6.03675H13.2878L11.4081 1.73247C11.2915 1.4656 10.9807 1.34364 10.7138 1.46025C10.4469 1.5768 10.325 1.88768 10.4415 2.15459L12.137 6.03679H5.86304L7.55846 2.15459C7.675 1.88768 7.55315 1.57683 7.28624 1.46025C7.01937 1.34364 6.70848 1.46553 6.59194 1.73247L4.71217 6.03679H1.24562C0.861506 6.03679 0.504916 6.20782 0.267225 6.50605C0.0338928 6.79884 -0.0522048 7.17522 0.03101 7.5388L1.88223 15.6247C2.0115 16.1894 2.51097 16.5837 3.09685 16.5837H14.9032C15.489 16.5837 15.9885 16.1894 16.1178 15.6247L17.969 7.53877C18.0522 7.17518 17.9661 6.7988 17.7328 6.50602ZM14.9032 15.5289H3.09685C3.0073 15.5289 2.92887 15.4702 2.91034 15.3893L1.05912 7.30343C1.0446 7.23998 1.06896 7.19223 1.09203 7.16337C1.1134 7.13651 1.16181 7.09148 1.24562 7.09148H4.25159L4.11346 7.40778C3.99692 7.67468 4.11877 7.98553 4.38567 8.10211C4.45437 8.13214 4.52595 8.14634 4.59644 8.14634C4.79971 8.14634 4.99342 8.02811 5.07997 7.82993L5.40246 7.09155H12.5976L12.9201 7.82993C13.0067 8.02814 13.2004 8.14634 13.4036 8.14634C13.4741 8.14634 13.5457 8.13214 13.6144 8.10211C13.8813 7.98557 14.0032 7.67468 13.8866 7.40778L13.7485 7.09148H16.7545C16.8383 7.09148 16.8867 7.13651 16.908 7.16337C16.9311 7.19227 16.9555 7.24001 16.941 7.3034L15.0897 15.3893C15.0712 15.4702 14.9927 15.5289 14.9032 15.5289Z" fill="black"/>
<path d="M5.83594 9.37695C5.5447 9.37695 5.30859 9.61306 5.30859 9.9043V13.7715C5.30859 14.0627 5.5447 14.2988 5.83594 14.2988C6.12717 14.2988 6.36328 14.0627 6.36328 13.7715V9.9043C6.36328 9.61306 6.12721 9.37695 5.83594 9.37695Z" fill="black"/>
<path d="M9 9.37695C8.70877 9.37695 8.47266 9.61306 8.47266 9.9043V13.7715C8.47266 14.0627 8.70877 14.2988 9 14.2988C9.29123 14.2988 9.52734 14.0627 9.52734 13.7715V9.9043C9.52734 9.61306 9.29123 9.37695 9 9.37695Z" fill="black"/>
<path d="M12.1641 9.37695C11.8728 9.37695 11.6367 9.61306 11.6367 9.9043V13.7715C11.6367 14.0627 11.8728 14.2988 12.1641 14.2988C12.4553 14.2988 12.6914 14.0627 12.6914 13.7715V9.9043C12.6914 9.61306 12.4553 9.37695 12.1641 9.37695Z" fill="black"/>
</g>
<defs>
<clipPath id="clip0_3501_251">
<rect width="18" height="18" fill="white"/>
</clipPath>
</defs>
</svg>
